<svg 
 xmlns="http://www.w3.org/2000/svg"
 xmlns:xlink="http://www.w3.org/1999/xlink"
 width="59px" height="54px">
<path fill-rule="evenodd"  fill="rgb(0, 0, 0)"
 d="M29.487,53.989 C27.299,53.989 -0.014,38.550 -0.014,20.097 C-0.014,10.385 7.355,-0.012 18.323,-0.012 C23.375,-0.012 27.019,2.025 29.487,4.242 C31.960,2.025 35.604,-0.012 40.651,-0.012 C51.622,-0.012 58.991,10.385 58.991,20.097 C58.991,38.550 31.676,53.989 29.487,53.989 ZM18.323,4.777 C10.165,4.777 4.684,12.698 4.684,20.097 C4.684,33.737 24.520,46.389 29.487,48.966 C34.457,46.393 54.293,33.751 54.293,20.097 C54.293,12.698 48.809,4.777 40.651,4.777 C35.989,4.777 32.974,7.186 31.268,9.206 C30.818,9.732 30.171,10.036 29.487,10.036 L29.487,10.036 C28.804,10.036 28.154,9.732 27.707,9.204 C25.1000,7.186 22.988,4.777 18.323,4.777 Z"/>
</svg>