<svg 
 xmlns="http://www.w3.org/2000/svg"
 xmlns:xlink="http://www.w3.org/1999/xlink"
 width="64px" height="65px">
<path fill-rule="evenodd"  fill="rgb(0, 0, 0)"
 d="M31.917,64.667 C14.290,64.667 -0.000,50.377 -0.000,32.750 C-0.000,15.123 14.290,0.833 31.917,0.833 C49.544,0.833 63.833,15.123 63.833,32.750 C63.833,50.377 49.544,64.667 31.917,64.667 ZM31.917,5.744 C17.001,5.744 4.910,17.835 4.910,32.750 C4.910,47.665 17.001,59.756 31.917,59.756 C46.832,59.756 58.923,47.665 58.923,32.750 C58.923,17.835 46.832,5.744 31.917,5.744 ZM38.873,36.491 C43.167,36.491 46.647,39.972 46.647,44.266 C46.647,48.560 43.167,52.040 38.873,52.040 C34.579,52.040 31.098,48.560 31.098,44.266 C31.098,43.677 31.166,43.105 31.290,42.554 L25.031,38.719 C23.682,39.846 21.946,40.525 20.050,40.525 C15.756,40.525 12.276,37.044 12.276,32.750 C12.276,28.456 15.756,24.975 20.050,24.975 C21.947,24.975 23.684,25.655 25.033,26.784 L31.293,22.961 C31.167,22.405 31.098,21.828 31.098,21.234 C31.098,16.940 34.579,13.460 38.873,13.460 C43.167,13.460 46.647,16.940 46.647,21.234 C46.647,25.528 43.167,29.009 38.873,29.009 C36.953,29.009 35.197,28.311 33.841,27.158 L27.615,30.960 C27.751,31.535 27.825,32.134 27.825,32.750 C27.825,33.367 27.751,33.967 27.615,34.543 L33.830,38.351 C35.187,37.192 36.948,36.491 38.873,36.491 ZM38.873,47.130 C40.455,47.130 41.737,45.848 41.737,44.266 C41.737,42.684 40.455,41.402 38.873,41.402 C37.291,41.402 36.009,42.684 36.009,44.266 C36.009,45.848 37.291,47.130 38.873,47.130 ZM20.050,29.886 C18.468,29.886 17.186,31.168 17.186,32.750 C17.186,34.332 18.468,35.614 20.050,35.614 C21.632,35.614 22.915,34.332 22.915,32.750 C22.915,31.168 21.632,29.886 20.050,29.886 ZM36.314,22.521 C36.356,22.578 36.397,22.636 36.434,22.697 C36.477,22.766 36.514,22.836 36.549,22.908 C37.069,23.629 37.916,24.099 38.873,24.099 C40.455,24.099 41.737,22.816 41.737,21.234 C41.737,19.652 40.455,18.370 38.873,18.370 C37.291,18.370 36.009,19.652 36.009,21.234 C36.009,21.697 36.119,22.134 36.314,22.521 Z"/>
</svg>